<svg xmlns="http://www.w3.org/2000/svg" viewBox="0 0 512 512">
  <defs>
    <linearGradient id="bg" x1="0" y1="0" x2="1" y2="1">
      <stop offset="0%" stop-color="#123452"/>
      <stop offset="100%" stop-color="#2b618f"/>
    </linearGradient>
  </defs>
  <rect width="512" height="512" rx="108" fill="url(#bg)"/>
  <circle cx="256" cy="238" r="132" fill="none" stroke="#f2d7ab" stroke-width="18"/>
  <path d="M132 238h248M256 106c-40 34-62 79-62 132s22 98 62 132c40-34 62-79 62-132s-22-98-62-132Z" fill="none" stroke="#f2d7ab" stroke-width="18"/>
  <path d="M170 164c30 18 61 27 86 27s56-9 86-27M170 312c30-18 61-27 86-27s56 9 86 27" fill="none" stroke="#f2d7ab" stroke-width="18" stroke-linecap="round"/>
  <path d="M126 392h260" stroke="#f8f3ea" stroke-width="22" stroke-linecap="round"/>
  <path d="M150 352h212" stroke="#f8f3ea" stroke-width="22" stroke-linecap="round"/>
  <path d="M176 432h160" stroke="#a67739" stroke-width="22" stroke-linecap="round"/>
</svg>
